<?xml version="1.0" standalone="no"?>
<!DOCTYPE svg PUBLIC "-//W3C//DTD SVG 20010904//EN"
 "http://www.w3.org/TR/2001/REC-SVG-20010904/DTD/svg10.dtd">
<svg version="1.0" xmlns="http://www.w3.org/2000/svg"
 width="474.000000pt" height="474.000000pt" viewBox="0 0 474.000000 474.000000"
 preserveAspectRatio="xMidYMid meet">

<!-- Add a circular background with specified opacity -->
<circle cx="237" cy="237" r="237" fill="#838080" fill-opacity="0.5"/>

<g transform="translate(0.000000,474.000000) scale(0.100000,-0.100000)"
fill="#fff" stroke="none">

<path d="M2202 3940 c-115 -30 -221 -91 -294 -169 -96 -102 -135 -189 -153
-343 l-7 -58 79 0 80 0 6 58 c16 170 125 294 317 358 71 24 214 24 289 1 74
-23 169 -78 213 -124 51 -52 95 -151 103 -229 l7 -64 80 0 80 0 -7 53 c-20
160 -64 256 -160 352 -123 124 -279 186 -464 184 -61 0 -123 -7 -169 -19z"/>
<path d="M1432 3223 c-32 -13 -31 -1 -82 -603 -16 -195 -36 -431 -45 -525 -8
-93 -28 -332 -45 -530 -17 -198 -33 -387 -36 -421 -6 -55 -4 -63 19 -90 l25
-29 1081 -3 c-958 -2 1084 -1 1111 13 51 27 55 -91 -40 1250 -27 380 -52 736
-56 793 -5 79 -11 108 -26 127 l-19 25 -937 -1 c-515 0 -943 -3 -950 -6z
m1778 -158 c0 -14 14 -207 95 -1346 19 -273 35 -506 35 -518 l0 -21 -981 0
-980 0 5 43 c-11 81 17 157 121 1392 20 231 38 430 41 443 l4 22 830 0 c734 0
830 -2 830 -15z"/>
<path d="M1762 3013 c-18 -9 -45 -32 -60 -51 -36 -47 -39 -145 -6 -189 59 -80
157 -98 233 -42 161 116 11 370 -167 282z"/>
<path d="M2821 3008 c-52 -28 -91 -91 -91 -147 0 -47 36 -109 79 -138 72 -48
187 -20 230 57 82 146 -72 306 -218 228z"/>
</g>
</svg>
