<?xml version="1.0" encoding="utf-8"?>
<!-- Svg Vector Icons : http://www.onlinewebfonts.com/icon -->
<!DOCTYPE svg PUBLIC "-//W3C//DTD SVG 1.1//EN" "http://www.w3.org/Graphics/SVG/1.1/DTD/svg11.dtd">
<svg version="1.1" xmlns="http://www.w3.org/2000/svg" xmlns:xlink="http://www.w3.org/1999/xlink" x="0px" y="0px" viewBox="0 0 256 256" enable-background="new 0 0 256 256" xml:space="preserve">
<metadata> Svg Vector Icons : http://www.onlinewebfonts.com/icon </metadata>
<g><g><g><path fill="#000000" d="M223.9,120.6c0-37-21.1-69.1-51.9-85.1c-0.6-5.4-4.1-10.4-9.7-12.3c-22-7.8-46.7-7.7-68.7,0c-5.5,2-9,6.9-9.6,12.3c-30.8,16-51.8,48.1-51.8,85.1H10c0,16.3,13.2,29.5,29.5,29.5c0,48.9,39.6,88.5,88.5,88.5c48.9,0,88.5-39.6,88.5-88.5c16.3,0,29.5-13.2,29.5-29.5L223.9,120.6L223.9,120.6z M89.9,49c2.5,1.8,5.5,2.8,8.6,2.8c1.6,0,3.3-0.3,4.9-0.8c15.7-5.6,33.4-5.6,49.1,0c4.6,1.6,9.5,0.6,13.3-2.1c25.7,13.6,43.3,40.6,43.3,71.7H46.9C46.9,89.6,64.3,62.7,89.9,49z M105.9,201.7c0,4.1-3.3,7.4-7.4,7.4s-7.4-3.3-7.4-7.4v-51.6h14.8L105.9,201.7L105.9,201.7z M135.4,201.7c0,4.1-3.3,7.4-7.4,7.4c-4.1,0-7.4-3.3-7.4-7.4v-51.6h14.8L135.4,201.7L135.4,201.7z M164.9,201.7c0,4.1-3.3,7.4-7.4,7.4s-7.4-3.3-7.4-7.4v-51.6h14.8L164.9,201.7L164.9,201.7z"/></g><g></g><g></g><g></g><g></g><g></g><g></g><g></g><g></g><g></g><g></g><g></g><g></g><g></g><g></g><g></g></g></g>
</svg>