<?xml version="1.0" encoding="utf-8"?>
<!-- Svg Vector Icons : http://www.onlinewebfonts.com/icon -->
<!DOCTYPE svg PUBLIC "-//W3C//DTD SVG 1.1//EN" "http://www.w3.org/Graphics/SVG/1.1/DTD/svg11.dtd">
<svg version="1.1" xmlns="http://www.w3.org/2000/svg" xmlns:xlink="http://www.w3.org/1999/xlink" x="0px" y="0px" viewBox="0 0 256 256" enable-background="new 0 0 256 256" xml:space="preserve">
<metadata> Svg Vector Icons : http://www.onlinewebfonts.com/icon </metadata>
<g><g><path fill="#000000" d="M175,165.6H98.1c-7.3,0-9.1-4-9.5-6.4l-0.7-4.2C80,110.8,75.5,86.2,74.5,82c-0.9-3.4-2.3-4.6-3.3-4.6H55.9c-1.7,0-3-1.3-3-3s1.3-3,3-3h15.2c1.6,0,7,0.7,9.2,9.2c1.6,6.6,10.5,56.9,13.5,73.4l0.7,4.2c0.1,0.4,0.3,1.4,3.6,1.4H175c1.7,0,3,1.3,3,3C178,164.3,176.7,165.6,175,165.6L175,165.6z M166.2,141.3H88.5c-1.7,0-3-1.3-3-3c0-1.7,1.3-3,3-3h77.7c5.3,0,6.4-4.2,6.5-4.4c0.3-1.2,7.6-28.2,9.6-35c0.2-0.8,0.4-1.9,0-2.5c-0.4-0.7-1.5-1-2-1.1H79c-1.7,0-3-1.3-3-3c0-1.7,1.3-3,3-3h101.5c0.1,0,0.2,0,0.3,0c0.4,0,4.3,0.5,6.4,3.7c0.9,1.4,1.9,3.9,0.8,7.6c-2,6.7-9.4,34.5-9.5,34.7C177.8,135.4,174.3,141.3,166.2,141.3L166.2,141.3z M104.4,198.9c-6.9,0-12.5-5.6-12.5-12.5s5.6-12.5,12.5-12.5c6.9,0,12.5,5.6,12.5,12.5S111.2,198.9,104.4,198.9L104.4,198.9z M104.4,179.9c-3.6,0-6.5,2.9-6.5,6.5s2.9,6.5,6.5,6.5c3.6,0,6.5-2.9,6.5-6.5S107.9,179.9,104.4,179.9L104.4,179.9z M160.4,198.9c-6.9,0-12.5-5.6-12.5-12.5s5.6-12.5,12.5-12.5s12.5,5.6,12.5,12.5S167.2,198.9,160.4,198.9L160.4,198.9z M160.4,179.9c-3.6,0-6.5,2.9-6.5,6.5s2.9,6.5,6.5,6.5s6.5-2.9,6.5-6.5S163.9,179.9,160.4,179.9L160.4,179.9z"/><path fill="#000000" d="M128,10C62.8,10,10,62.8,10,128c0,65.2,52.8,118,118,118c65.2,0,118-52.8,118-118C246,62.8,193.2,10,128,10z M128,240.1c-61.9,0-112.1-50.2-112.1-112.1C15.9,66.1,66.1,15.9,128,15.9c61.9,0,112.1,50.2,112.1,112.1C240.1,189.9,189.9,240.1,128,240.1z"/></g></g>
</svg>