<?xml version="1.0" standalone="no"?>
<!DOCTYPE svg PUBLIC "-//W3C//DTD SVG 20010904//EN"
 "http://www.w3.org/TR/2001/REC-SVG-20010904/DTD/svg10.dtd">
<svg version="1.0" xmlns="http://www.w3.org/2000/svg"
 width="512.000000pt" height="512.000000pt" viewBox="0 0 512.000000 512.000000"
 preserveAspectRatio="xMidYMid meet">

<!-- Add a circular background with specified opacity -->
<circle cx="256" cy="256" r="256" fill="#838080" fill-opacity="0.5"/>

<g transform="translate(0.000000,512.000000) scale(0.100000,-0.100000)"
fill="#fff" stroke="none">

<path d="M1676 3824 c-349 -63 -639 -357 -701 -709 -93 -538 297 -1133 1090
-1662 140 -93 332 -207 427 -254 l68 -33 47 23 c160 76 478 276 665 418 430
325 715 673 828 1011 122 363 49 715 -199 963 -292 292 -754 342 -1096 118
-74 -48 -178 -143 -223 -203 l-22 -29 -22 29 c-39 53 -153 159 -213 199 -184
122 -424 170 -649 129z m298 -158 c244 -47 436 -208 546 -460 19 -42 36 -76
40 -76 4 0 21 34 40 76 18 41 50 102 72 135 221 343 663 440 1000 220 145 -95
259 -252 305 -421 24 -89 24 -290 -1 -379 -29 -107 -46 -152 -92 -244 -177
-353 -578 -732 -1121 -1057 -214 -128 -192 -124 -304 -60 -589 334 -1034 740
-1224 1118 -173 345 -146 686 74 924 175 189 418 271 665 224z"/>
</g>
</svg>
