<svg xmlns="http://www.w3.org/2000/svg" data-name="Layer 1" viewBox="0 0 100 125" x="0px" y="0px" fill="#ed1b08"><path d="M56.83222,39.39386a7.0164,7.0164,0,0,1-.81242.81207c-.17472.14863-.4294-.1037-.2534-.25339,2.23031-1.89719,3.26621-5.41239,1.38874-7.90907a4.85934,4.85934,0,0,0-3.57074-1.97571,7.982,7.982,0,0,0-2.22262.39856,2.62561,2.62561,0,0,1-2.15276-.16614,3.28367,3.28367,0,0,1-1.03753-1.71282,5.46418,5.46418,0,0,0-1.14864-1.91143,14.89622,14.89622,0,0,0-3.86255-2.6625,6.501,6.501,0,0,0-4.8375-.97783,7.59581,7.59581,0,0,0-3.589,2.54989c-1.954,2.28236-3.06507,5.2986-5.58147,7.08238a6.87433,6.87433,0,0,1-.93007.55327c-.20606.10186-.38784-.20713-.18088-.30945,2.88864-1.42811,4.119-4.62242,5.99712-7.03729a9.186,9.186,0,0,1,3.49748-2.94005,5.15105,5.15105,0,0,1,2.19074-.42418,6.85307,6.85307,0,0,1,2.53175.65283A23.0469,23.0469,0,0,1,44.59,24.41556a15.37146,15.37146,0,0,1,1.93656,1.31164,6.55209,6.55209,0,0,1,1.49157,1.6667c.386.64163.52547,1.38666.891,2.03448a1.552,1.552,0,0,0,.835.74415,2.33809,2.33809,0,0,0,1.19878.01973,14.96788,14.96788,0,0,1,2.33054-.48417,5.06986,5.06986,0,0,1,3.75319,1.63375,5.34349,5.34349,0,0,1,1.46473,3.93187A6.90633,6.90633,0,0,1,56.83222,39.39386Z"/><path d="M2.41351,93.24655A56.40325,56.40325,0,0,0,21.28273,82.8539a10.40714,10.40714,0,0,0,3.30951-3.80777A5.26856,5.26856,0,0,0,23.643,74.0986c-1.75981-2.56515-5.068-4.69415-4.95243-8.15882.1196-3.58519,3.46922-5.74542,6.1732-7.45481a16.58268,16.58268,0,0,0,4.14367-3.3435,6.172,6.172,0,0,0,1.47946-5.0596c-.57547-2.75876-3.53509-3.84668-5.32825-5.67825a4.28438,4.28438,0,0,1-1.36431-3.27744,7.30759,7.30759,0,0,1,2.23523-4.17654c.89065-.97946,1.74016-2.00008,2.65149-2.9602a9.225,9.225,0,0,1,3.122-2.37135,3.19607,3.19607,0,0,1,3.39019.56045,5.49694,5.49694,0,0,1,1.51384,2.711,12.15749,12.15749,0,0,1,3.48877-1.05986,8.79107,8.79107,0,0,1,4.37093.62783,10.36782,10.36782,0,0,1,3.63692,2.53964,28.20911,28.20911,0,0,1,2.77863,3.76126,19.52848,19.52848,0,0,0,2.92952,3.60851c.57254.53192,1.213.97252,1.80144,1.48239a1.968,1.968,0,0,1,.72079,1.42811,2.39091,2.39091,0,0,1-1.22823,1.97217q.25424.28751.50905.57541c.34129.38436.69239.76178,1.06078,1.121.03314-.30447.06286-.60955.08744-.917a5.59751,5.59751,0,0,1,.63158-1.9449,21.769,21.769,0,0,0,.88576-2.03019,22.14949,22.14949,0,0,0,1.11637-9.13553c-.058-.78232-.18112-1.54631-.301-2.32045a17.77527,17.77527,0,0,1-.107-2.27716c-.03946-1.51862-.16262-3.03465-.16164-4.55436a15.56453,15.56453,0,0,1,.55767-4.43969,13.37519,13.37519,0,0,1,1.95941-3.87083c.83916-1.18773,1.79663-2.28551,2.74131-3.38908q1.59278-1.86059,3.18555-3.72123l1.55889-1.82108c.15021-.17546.40269.079.25339.25342C67.13315,13.173,65.044,15.5405,63.038,17.97293a20.2653,20.2653,0,0,0-2.404,3.47819,11.85949,11.85949,0,0,0-1.25472,4.29951,29.79451,29.79451,0,0,0-.0211,4.43275c.03533.74468.074,1.48929.0916,2.23464a17.50753,17.50753,0,0,0,.10525,2.15378,12.27536,12.27536,0,0,1,1.61721-1.22415c.90051-.59876,1.835-1.14676,2.78258-1.66726a42.78655,42.78655,0,0,1,6.58937-3.0011,14.11621,14.11621,0,0,1,2.78931-.71187,2.67544,2.67544,0,0,1,2.33044.51985c.56917.63531.02356,1.4213-.571,1.77883-.40119.24126-.83509.43588-1.25212.648l-1.35038.68669q-2.74047,1.39359-5.481,2.78717c-.39848.20262-.81109.38937-1.19855.61256a.7261.7261,0,0,0-.42782.89372c.30432.94214,1.54838.75316,2.30016.6282a16.3332,16.3332,0,0,0,5.145-2.01915c.39895-.22059.79478-.44679,1.19035-.67339a.18072.18072,0,0,1,.24515.24515A5.95082,5.95082,0,0,1,71.244,36.80773c.22219.01094.44437.02227.66667.0269a4.75915,4.75915,0,0,0,1.90873-.32181,2.37447,2.37447,0,0,1,1.67008-.24206.18176.18176,0,0,1,.0428.32747A14.10489,14.10489,0,0,1,66.81972,39.016a.18094.18094,0,0,1-.09043-.33389,12.19328,12.19328,0,0,1,2.6991-1.45614,8.85162,8.85162,0,0,0-.91126.19821c-1.15943.31326-2.26026.80508-3.41232,1.14153a13.05925,13.05925,0,0,1-2.79115.47337,3.748,3.748,0,0,1-.58653-.03025c-.26884-.02409-.53905-.03235-.80742-.06175a2.03944,2.03944,0,0,1-.99444-.3301,22.79057,22.79057,0,0,1-.47843,4.98552,17.99456,17.99456,0,0,1-1.36517,4.09281,9.1621,9.1621,0,0,0-.80274,1.95764,8.69567,8.69567,0,0,0-.10419,1.06411c-.01737.18312-.03907.36584-.06292.54826.15053.13622.30387.26938.46253.39651a12.19472,12.19472,0,0,0,2.45123,1.48156c.81183.38188,1.677.61515,2.49046.98657.1731.079.33991.17052.50584.2638.20862-.16439.41857-.32712.63446-.48251a9.9676,9.9676,0,0,1,1.77179-1.04715,3.25249,3.25249,0,0,1,1.69223-.38008,1.114,1.114,0,0,1,1.00841.94608,1.5421,1.5421,0,0,1-.54169,1.33331c-.83966.70786-1.95243.477-2.97207.58792.0264.02318.05466.04411.0802.0683a1.87146,1.87146,0,0,1,.61052,1.67709,2.54439,2.54439,0,0,1-.74445,1.28241c-.24923.25863-.54959.50351-.849.75645a3.38659,3.38659,0,0,1,.11577.54673,41.50352,41.50352,0,0,1,4.1918.18539c1.09187.10429,2.17814.26129,3.26761.384a2.41713,2.41713,0,0,1,1.08209.27882c.30566.20894.25115.59305.16169.90428-.10933.38041-.29921.728-.43658,1.09739-.23943.6438-.46135,1.29407-.70281,1.93726q-.82306,2.19237-1.75565,4.34126c-.09141.21107-.40024.02881-.30943-.18086q.79106-1.82658,1.50342-3.68576c.39215-1.024.73259-2.06891,1.16127-3.07783a4.29511,4.29511,0,0,0,.20831-.57738c.00837-.03165.019-.06962.02869-.11a25.29375,25.29375,0,0,0-3.232,1.992,12.10192,12.10192,0,0,0-1.60118,1.38734,2.92149,2.92149,0,0,0-.99252,1.63251,2.68289,2.68289,0,0,0,1.55718,2.22213c.7982.43269,1.75465.43951,2.46717,1.05218a6.07855,6.07855,0,0,1,1.73173,3.54768c.18172,1.147-.075,2.29466.07257,3.44013a1.94591,1.94591,0,0,0,.50854,1.19285,2.02584,2.02584,0,0,0,1.51014.40871,5.5288,5.5288,0,0,0,3.35483-1.60926A35.32785,35.32785,0,0,0,80.108,73.76769a39.85182,39.85182,0,0,1,3.21858-3.12755q1.76259-1.55495,3.66945-2.9357c1.19443-.86513,2.43829-1.657,3.65741-2.4862,2.41771-1.64438,4.70476-3.5141,5.94417-6.23375A18.44527,18.44527,0,0,0,97.84488,50.139c-.18984-2.86669-.929-5.93225-3.31821-7.7701a7.61079,7.61079,0,0,0-.92191-.60389,16.961,16.961,0,0,1-.30559,2.09011,12.01242,12.01242,0,0,1-4.12454,6.99291,6.46263,6.46263,0,0,1-3.85589,1.55416,3.129,3.129,0,0,1-2.938-2.09934c-.9664-2.452.0104-5.40016,1.68114-7.29927a7.64379,7.64379,0,0,1,7.0138-2.49911,8.01814,8.01814,0,0,1,2.20871.69916,32.73822,32.73822,0,0,0-.26108-5.12481c-.22828-2.26222-1.2259-6.24027-2.9143-14.50606-.32434-1.58783-.49974-3.22368-.82841-4.80973a34.0781,34.0781,0,0,0-3.05845-9.07646c-.644-1.21686-1.51578-2.53306-2.95557-2.84067-1.56691-.33477-3.17005.5573-4.432,1.3879-4.91759,3.2368-7.593,8.882-12.48594,12.16055a12.91969,12.91969,0,0,1-3.66783,1.72484.17934.17934,0,0,1-.09526-.34557c6.22465-1.75941,9.3644-8.08028,13.88259-12.145A15.431,15.431,0,0,1,80.27,5.00945a4.32486,4.32486,0,0,1,4.18532-.05433A7.91309,7.91309,0,0,1,86.97853,8.395a30.90664,30.90664,0,0,1,1.762,4.67518,50.23167,50.23167,0,0,1,1.14078,4.89762c.30567,1.64165,2.727,13.6153,3.05406,15.3768a32.67865,32.67865,0,0,1,.698,8.038,8.0618,8.0618,0,0,1,3.55777,3.94673,14.23581,14.23581,0,0,1,.97992,4.38013,24.74474,24.74474,0,0,1-.02914,4.69483,13.39151,13.39151,0,0,1-3.61122,8.17254c-2.14986,2.183-4.89091,3.65317-7.35391,5.43714a44.0709,44.0709,0,0,0-7.23759,6.48179c-1.58242,1.7966-3.531,4.15353-6.20425,3.90768-2.64034-.24283-1.66446-3.45846-1.90762-5.195a6.76952,6.76952,0,0,0-.82568-2.41093,3.26626,3.26626,0,0,0-1.21547-1.34058,14.89449,14.89449,0,0,1-2.50031-1.06826,2.59959,2.59959,0,0,1-1.18751-2.54221,3.737,3.737,0,0,1,1.00689-1.50257,12.28915,12.28915,0,0,1,1.6151-1.41161c.19549-.1464.39475-.28758.5956-.4265q-.21984.09138-.44194.17776a11.3446,11.3446,0,0,1-1.84143.56141,4.73865,4.73865,0,0,1-1.63577.10494,2.42274,2.42274,0,0,1-2.05148-1.8913,3.16806,3.16806,0,0,1,.10535-.97732,2.669,2.669,0,0,0-.03455-1.09009,3.06627,3.06627,0,0,0-1.07354,1.54364,2.78588,2.78588,0,0,0,1.17577,2.48272,9.457,9.457,0,0,1,1.82613,1.84474c.039.063.07306.12765.10617.19257a.1755.1755,0,0,1,.094.20954,2.09362,2.09362,0,0,1,.0014,1.616,1.62441,1.62441,0,0,1-.80768.87554c.87594.616.94085,2.00216.80809,2.9946a4.17025,4.17025,0,0,0,.15545,2.74139c.41572.68053,1.18317,1.06334,1.45493,1.84682.50314,1.45057-.84834,2.88273-2.02726,3.50135a11.92064,11.92064,0,0,1-5.28826,1.12185c-1.20482.02686-2.41254-.01155-3.61932-.0624A18.38062,18.38062,0,0,0,44.9005,85.406c-3.06838,2.9518-5.33,6.71748-8.92057,9.11427a10.38285,10.38285,0,0,1-6.31225,1.94445c-.22916-.01382-.23073-.37227,0-.35836,4.274.25731,7.76663-2.8224,10.40385-5.82158,1.44479-1.64312,2.79328-3.37517,4.35243-4.91463A19.0142,19.0142,0,0,1,49.51154,81.744a18.71266,18.71266,0,0,1,4.65938-1.533c-.1299-.00525-.25987-.01085-.3897-.01564q-3.20965-.11852-6.41932-.237c-2.01924-.07454-4.07192-.054-6.07843-.31159a8.4561,8.4561,0,0,1-4.69464-1.93547c-2.76667-2.4815-3.27122-6.39482-3.24394-9.9066.02276-2.92871.15633-6.34961,2.08587-8.67736l-.0082-.01973c-1.412-3.55085-.89218-7.47561-.12588-11.10866.849-4.025,2.06735-8.19763,1.22407-12.33125-.01827-.08955-.03806-.18026-.05911-.27157-2.55937,1.20933-5.06161,2.879-7.98612,2.90523a.17929.17929,0,0,1,0-.35836c2.87422-.02579,5.34441-1.70246,7.85785-2.88253l.03936-.018a4.28075,4.28075,0,0,0-2.40636-3.18965A3.92886,3.92886,0,0,0,30.33,32.93065a24.12332,24.12332,0,0,0-2.94625,3.05712,15.5081,15.5081,0,0,0-2.88106,3.77412,3.77852,3.77852,0,0,0,.657,4.11626,20.49267,20.49267,0,0,0,3.00969,2.48473,6.98442,6.98442,0,0,1,2.49241,3.01543,5.96153,5.96153,0,0,1-.64357,4.94018c-1.93761,3.291-5.7452,4.47374-8.45449,6.93779a7.05471,7.05471,0,0,0-2.50391,4.4833,6.718,6.718,0,0,0,1.91994,4.67753c2.02519,2.43722,5.40263,5.27734,3.91136,8.83834a10.792,10.792,0,0,1-3.31244,3.81617q-2.10265,1.76256-4.3699,3.316a56.64508,56.64508,0,0,1-9.71718,5.34121Q5.04484,92.77614,2.50878,93.5921C2.28872,93.6629,2.19449,93.317,2.41351,93.24655ZM74.943,36.55541a4.0331,4.0331,0,0,0-1.17231.35937,4.588,4.588,0,0,1-1.65546.2804c-.53179.00035-1.06233-.04851-1.594-.05131a22.75137,22.75137,0,0,0-3.16615,1.5334A13.79344,13.79344,0,0,0,74.943,36.55541ZM61.07945,38.60358a8.54822,8.54822,0,0,0,1.23421.07711,12.62851,12.62851,0,0,0,2.77653-.4844c1.1495-.34311,2.25021-.83488,3.412-1.13906a7.93979,7.93979,0,0,1,1.68158-.2687c.08662-.00353.17317-.00234.25974-.00263.12807-.05739.25576-.11549.38241-.17544a6.8433,6.8433,0,0,0,2.7948-2.14083,22.74228,22.74228,0,0,1-4.37694,2.04492,8.72133,8.72133,0,0,1-2.5987.46689,1.52054,1.52054,0,0,1-1.64777-1.16721c-.12942-.82836.66937-1.14492,1.27515-1.453l2.70077-1.3734q2.74048-1.39361,5.481-2.78717a2.0937,2.0937,0,0,0,.99323-.74942.66061.66061,0,0,0-.36774-.95015,2.28957,2.28957,0,0,0-1.03789-.22485,8.85793,8.85793,0,0,0-2.51792.46309,36.91829,36.91829,0,0,0-6.53363,2.79156c-1.003.52656-1.99132,1.08335-2.9517,1.68448a16.88058,16.88058,0,0,0-2.07465,1.46525c-.10836.0932-.21391.18959-.31462.29106a.16906.16906,0,0,1-.03026.02016,25.80973,25.80973,0,0,1,.2945,3.117A1.51563,1.51563,0,0,0,61.07945,38.60358Zm26.14568,2.6023a7.76147,7.76147,0,0,0-4.73857,5.81121,5.339,5.339,0,0,0,.58,3.84073c.909,1.37266,2.60862,1.37743,4.00386.82025a10.105,10.105,0,0,0,5.32495-5.99582,15.01778,15.01778,0,0,0,.86543-4.10081A7.64905,7.64905,0,0,0,87.22513,41.20588ZM63.70136,61.43226a1.62,1.62,0,0,0,.348.76036,2.3354,2.3354,0,0,0,1.2709.77821,3.91387,3.91387,0,0,0,1.61714-.07157,16.16957,16.16957,0,0,0,3.69941-1.37892c.50014-.23847.99685-.484,1.4971-.72223a1.20655,1.20655,0,0,0-.2788-.09184,4.42136,4.42136,0,0,0-.62091-.10208c-.98644-.10554-1.96746-.25191-2.95472-.35253a41.48352,41.48352,0,0,0-4.4322-.21089,2.71618,2.71618,0,0,1-.01609.30066A4.11263,4.11263,0,0,0,63.70136,61.43226ZM61.87744,54.2551c-.40666-.14947-.8211-.27629-1.22159-.44246a13.53217,13.53217,0,0,1-3.60368-2.13107c-.00961.06411-.018.12839-.028.19241-.11729.74925-.26857,1.494-.36444,2.24648a5.10611,5.10611,0,0,0,.062,2.05082,2.05115,2.05115,0,0,0,.4816.89842c.34421.33723.70038.21162,1.09243.03519.641-.28846,1.29218-.55443,1.92683-.85682a9.98235,9.98235,0,0,0,1.79613-1.06189c.23209-.178.46008-.361.68841-.54347A5.97312,5.97312,0,0,0,61.87744,54.2551Zm4.21113.67539a1.79666,1.79666,0,0,0,1.59318-.881.94626.94626,0,0,0,.00056-.85072.89509.89509,0,0,0-.83334-.37109,4.45518,4.45518,0,0,0-1.96.71069,12.53808,12.53808,0,0,0-1.51328,1.05382c.10384.05746.20844.11352.31513.16562a5.17766,5.17766,0,0,1,.5304.29489C64.83505,54.93491,65.46808,54.989,66.08857,54.93049Zm-1.23292,1.30225a1.87975,1.87975,0,0,0-.71691-.797,2.43441,2.43441,0,0,0-.28808.09062,1.3674,1.3674,0,0,0-.9426,1.34849,5.22238,5.22238,0,0,0,.618,1.7431c.02365.05538.04554.11107.06714.1668C64.33185,58.14787,65.33155,57.29822,64.85565,56.23274Zm.35763,13.52871a1.69311,1.69311,0,0,0-1.09939-1.5075.16382.16382,0,0,1-.11784-.12192,5.98422,5.98422,0,0,0-2.60159.27664l-.05512.01453a8.67154,8.67154,0,0,1-2.18307.38461,3.51866,3.51866,0,0,1-.797-.08714l.04042-.17463A6.0917,6.0917,0,0,0,61.29349,68.25l.05512-.01453a6.22588,6.22588,0,0,1,2.6833-.27822.15154.15154,0,0,1,.12961-.05525,1.23163,1.23163,0,0,0,1.17177-1.161,1.72085,1.72085,0,0,0-.14069-.99674q-.931-.28865-1.862-.57726a6.09844,6.09844,0,0,0-1.96405-.40751c-1.23142.03867-2.04047,1.21124-2.63777,2.15625a2.04678,2.04678,0,0,0-.39365,1.75758,2.5368,2.5368,0,0,0,1.15388,1.17145,9.63243,9.63243,0,0,0,3.24817,1.20147,7.62958,7.62958,0,0,0,1.34879.16925c.3444.00479.85416-.00285,1.03542-.35535a.15546.15546,0,0,1,.10821-.08712A3.99916,3.99916,0,0,0,65.21328,69.76145ZM35.66793,47.97284c-.7543,3.54984-1.28518,7.36564.029,10.85231a6.47619,6.47619,0,0,1,.83838-.75235,6.35059,6.35059,0,0,1,5.03844-.88694,22.67958,22.67958,0,0,1,2.61942.6029,5.96834,5.96834,0,0,1,1.96189.91861,2.92691,2.92691,0,0,1,.591,4.00385,4.84576,4.84576,0,0,1-4.13915,1.88337,8.18615,8.18615,0,0,1-7.01268-5.08583,7.13094,7.13094,0,0,0-.62337.94829,12.42574,12.42574,0,0,0-1.22115,5.49047,27.1192,27.1192,0,0,0,.22293,5.85194,10.42993,10.42993,0,0,0,1.99442,4.72773A7.31861,7.31861,0,0,0,40.288,79.11993a33.132,33.132,0,0,0,5.66165.42783l6.29094.23229c2.00271.07395,4.00581.16728,6.00929.21667a16.54476,16.54476,0,0,0,5.41669-.54393,5.645,5.645,0,0,0,2.33252-1.29167,2.49106,2.49106,0,0,0,.87933-2.075c-.14282-.81192-.92292-1.23047-1.37675-1.85192a3.17281,3.17281,0,0,1-.41989-2.27348c.02208-.20434.05118-.40832.07936-.61229A3.12073,3.12073,0,0,1,63.073,71.47a10.51022,10.51022,0,0,1-3.42322-1.11694,4.029,4.029,0,0,1-1.45717-1.17916,1.87233,1.87233,0,0,1-.1171-1.78411A7.10985,7.10985,0,0,1,59.154,65.717a2.90546,2.90546,0,0,1,3.70743-1.06861c.69173.20263,1.37921.42107,2.06714.63708a3.97517,3.97517,0,0,0-.34164-.41538c-.95224-1.01793-2.4667-1.82313-2.63055-3.35688a3.02848,3.02848,0,0,1,1.35128-2.479c-.17428-.47941-.43112-.92688-.60307-1.40773a2.03253,2.03253,0,0,1-.00248-1.5467,1.84277,1.84277,0,0,1,1.02514-.88582c-.22406-.1191-.45385-.23-.66989-.35252a15.59968,15.59968,0,0,1-1.61648,1.16612,16.2852,16.2852,0,0,1-1.86484.9246c-.33809.14794-.6775.29287-1.01428.44379a2.03789,2.03789,0,0,1-.93987.27993c-.61717-.0406-.991-.67171-1.181-1.18957a4.48277,4.48277,0,0,1-.18622-1.90865c.06042-.73041.20157-1.45354.32434-2.17519.05645-.33176.10318-.66261.14483-.99382-.07182-.06621-.14553-.12978-.21572-.1983-.56563-.55226-1.08254-1.15077-1.60286-1.74588a12.99378,12.99378,0,0,1-1.5063.74606,14.219,14.219,0,0,1-2.2188.76173.17959.17959,0,0,1,.0108.345,12.993,12.993,0,0,0-3.31916,1.86806.18176.18176,0,0,1-.29948-.07905c-.225-.875.46708-1.37771,1.1813-1.73074-.19466.0152-.38958.02828-.585.03557-.23237.00866-.22763-.34117,0-.35836.22612-.01709.45235-.03111.67864-.04344q.50117-.04305.99765-.12175c.47869-.2077.96014-.41208,1.42823-.64071.47754-.23327,1.08588-.66408.774-1.27319a2.05246,2.05246,0,0,0-1.36962-.86633,5.78059,5.78059,0,0,0-1.8728-.149,16.71154,16.71154,0,0,0-3.77541.89,11.73511,11.73511,0,0,1-4.2326.72451.18143.18143,0,0,1-.17277-.22682,6.78532,6.78532,0,0,1,6.71434-4.55725,9.202,9.202,0,0,1,4.6772,1.51367,14.62073,14.62073,0,0,1,2.93606,2.6808,2.22075,2.22075,0,0,0,1.10621-1.428,1.68484,1.68484,0,0,0-.80758-1.5966c-.54872-.41825-1.08574-.84868-1.59167-1.31846a18.40032,18.40032,0,0,1-2.74009-3.31226,36.23823,36.23823,0,0,0-2.6377-3.69011,10.38537,10.38537,0,0,0-3.464-2.66359,8.60964,8.60964,0,0,0-4.31429-.79807A11.36763,11.36763,0,0,0,36.79618,35.241c.09132.39283.15978.78748.21323,1.17067C37.55425,40.31825,36.47309,44.18362,35.66793,47.97284Zm.17922,11.22948c1.23194,2.88752,4.09139,5.30128,7.37631,5.01258,1.64837-.14488,3.42492-1.1215,3.68634-2.89769.26849-1.82407-1.355-2.7563-2.8559-3.196a23.24393,23.24393,0,0,0-2.51629-.57967,7.57111,7.57111,0,0,0-2.95182-.03255A5.18281,5.18281,0,0,0,35.84715,59.20232ZM52.4519,49.56425a1.622,1.622,0,0,1-.893.91846q.59847-.17491,1.18115-.40257a13.55389,13.55389,0,0,0,1.90409-.93191,18.91213,18.91213,0,0,0-1.49164-1.54766,9.70036,9.70036,0,0,0-4.24294-2.26693,7.08177,7.08177,0,0,0-4.9355.5671,6.0272,6.0272,0,0,0-2.93386,3.30489c2.6849.07684,5.10519-1.4422,7.76449-1.62562a4.378,4.378,0,0,1,3.25925.81537A1.19008,1.19008,0,0,1,52.4519,49.56425Zm-3.08727,1.90391c-.53488.23747-1.423.57383-1.47283,1.23952a13.5553,13.5553,0,0,1,2.37608-1.40541c-.18158.00191-.36312.00479-.54461.00974C49.60352,51.3638,49.48359,51.41533,49.36463,51.46816Z"/></svg>