<?xml version="1.0" standalone="no"?>
<!DOCTYPE svg PUBLIC "-//W3C//DTD SVG 20010904//EN"
 "http://www.w3.org/TR/2001/REC-SVG-20010904/DTD/svg10.dtd">
<svg version="1.0" xmlns="http://www.w3.org/2000/svg"
 width="1280.000000pt" height="640.000000pt" viewBox="0 0 1280.000000 640.000000"
 preserveAspectRatio="xMidYMid meet">
<metadata>
Created by potrace 1.15, written by Peter Selinger 2001-2017
</metadata>
<g transform="translate(0.000000,640.000000) scale(0.100000,-0.100000)"
fill="#000000" stroke="none">
<path d="M11810 4088 c0 -7 11 -13 25 -13 14 0 25 6 25 13 0 6 -11 12 -25 12
-14 0 -25 -6 -25 -12z"/>
<path d="M11810 4050 c0 -5 11 -10 25 -10 14 0 25 5 25 10 0 6 -11 10 -25 10
-14 0 -25 -4 -25 -10z"/>
<path d="M11815 4010 c3 -5 12 -10 20 -10 8 0 17 5 20 10 4 6 -5 10 -20 10
-15 0 -24 -4 -20 -10z"/>
<path d="M11143 3968 c-101 -152 -163 -432 -163 -744 l0 -154 -30 0 c-30 0
-30 -1 -30 -55 0 -42 -3 -55 -15 -55 -11 0 -15 -12 -16 -42 0 -24 -4 -63 -9
-88 -7 -41 -8 -39 -8 30 0 92 -1 100 -11 75 -6 -14 -10 0 -15 50 -8 76 -39
190 -53 189 -4 0 -12 -14 -17 -30 -14 -49 -22 -59 -50 -62 -27 -4 -29 -11 -27
-102 0 -29 -1 -31 -8 -15 -5 11 -10 35 -10 53 l-1 32 -55 0 -55 0 0 -70 c0
-60 -2 -70 -17 -70 -13 0 -19 9 -20 33 -3 64 -15 107 -29 107 -10 0 -14 13
-14 40 0 36 -2 40 -25 40 -22 0 -25 -4 -25 -40 0 -33 -3 -40 -20 -40 -18 0
-20 -7 -20 -65 0 -55 -3 -65 -17 -65 -22 1 -53 23 -53 39 0 6 -14 11 -31 11
l-30 0 2 66 c2 53 -1 70 -14 79 -10 7 -17 18 -17 25 0 46 -36 128 -72 163 -40
38 -40 37 -67 197 l-7 45 -6 -45 c-20 -144 -27 -164 -63 -195 -38 -33 -78
-128 -68 -164 4 -15 1 -21 -10 -21 -23 0 -31 -18 -28 -70 1 -32 -3 -51 -14
-60 -8 -7 -15 -28 -15 -46 0 -25 -4 -34 -17 -35 -10 0 -61 -1 -113 -1 l-95 -1
0 44 c0 34 -5 46 -20 54 -13 7 -21 23 -23 48 -3 32 -7 37 -28 37 -21 0 -24 -4
-24 -39 0 -25 -5 -41 -15 -45 -11 -4 -15 -21 -15 -60 l0 -56 -25 12 c-23 10
-25 16 -25 82 l0 72 -41 -4 c-34 -4 -45 0 -70 24 -22 21 -27 33 -22 52 4 18 2
23 -8 20 -8 -3 -13 -15 -11 -29 2 -17 -6 -29 -27 -44 -16 -11 -32 -28 -35 -38
-4 -18 -5 -18 -25 2 -15 15 -19 28 -15 51 5 24 3 30 -11 30 -14 0 -16 -6 -11
-30 4 -23 0 -36 -15 -51 -12 -12 -18 -27 -15 -36 5 -11 2 -13 -10 -9 -8 3 -20
6 -25 6 -5 0 -9 7 -9 15 0 11 -12 15 -45 15 -33 0 -45 4 -45 15 0 10 -11 15
-35 15 -33 0 -34 1 -28 30 4 24 2 30 -12 30 -14 0 -16 -6 -11 -34 5 -28 3 -37
-13 -45 -11 -6 -22 -20 -26 -30 -4 -13 -12 -17 -26 -14 -16 5 -19 11 -14 33 5
21 0 33 -19 51 -21 19 -24 30 -20 57 5 25 3 32 -10 32 -12 0 -16 -9 -16 -35 0
-22 -8 -43 -20 -55 -16 -16 -19 -28 -14 -55 l6 -35 -46 0 c-44 0 -46 -1 -46
-30 0 -22 -5 -30 -17 -30 -23 0 -38 11 -46 33 -4 12 -17 17 -42 17 l-35 0 0
-95 c0 -57 -4 -95 -10 -95 -6 0 -10 44 -10 111 l0 110 -47 -3 -48 -3 -2 -120
c-3 -143 -2 -136 -14 -105 -9 23 -11 23 -20 7 -19 -34 -29 -5 -30 86 0 82 -4
97 -28 137 -40 65 -68 66 -103 0 -16 -27 -28 -61 -28 -74 0 -19 -5 -23 -27
-22 -24 1 -28 7 -39 51 -8 36 -12 42 -13 23 -1 -29 -14 -37 -27 -17 -3 6 -22
9 -40 7 -19 -2 -34 0 -34 4 0 4 -13 8 -30 8 -24 0 -30 -4 -30 -21 0 -11 -7
-27 -15 -35 -17 -17 -28 -11 -141 79 l-61 48 -6 88 c-4 49 -11 99 -16 112 -8
23 -9 23 -18 -11 l-10 -35 -11 40 c-7 22 -12 46 -12 53 0 28 -19 0 -25 -38 -9
-51 -21 -58 -30 -17 -6 31 -7 32 -16 8 -5 -13 -10 -52 -12 -87 l-2 -64 -162 0
c-133 0 -164 3 -177 16 -14 14 -18 14 -38 0 -18 -13 -54 -16 -185 -16 l-163 0
0 63 c0 68 -8 107 -21 107 -4 0 -9 -15 -11 -32 -4 -33 -4 -32 -18 15 -8 26
-17 47 -21 47 -4 0 -12 -21 -19 -47 l-12 -48 -12 34 c-17 47 -25 25 -33 -91
l-6 -89 -46 -40 c-25 -22 -57 -42 -71 -45 -15 -3 -30 -15 -35 -26 -6 -11 -25
-29 -42 -40 l-33 -20 0 37 c0 46 -33 95 -64 95 -22 0 -56 -44 -56 -74 0 -14
-3 -14 -37 0 -21 9 -45 19 -53 23 -8 3 -51 4 -95 1 -78 -5 -80 -6 -83 -32 -2
-16 -8 -28 -13 -28 -5 0 -9 -22 -9 -50 0 -43 -3 -50 -20 -50 -17 0 -20 7 -20
49 0 48 -2 51 -40 72 -34 19 -40 28 -40 56 0 31 -2 33 -35 33 l-35 0 0 -59 c0
-42 -5 -62 -17 -72 -9 -8 -22 -27 -29 -44 -12 -28 -13 -25 -14 48 l0 78 -35
-3 c-30 -2 -36 -7 -46 -36 -8 -25 -16 -33 -32 -31 -40 3 -42 -1 -40 -48 2 -42
1 -40 -12 22 -7 39 -14 89 -14 113 l-1 42 -40 0 -40 0 -1 -42 c-1 -24 -4 -33
-6 -20 -2 12 -9 22 -14 22 -5 0 -9 7 -9 15 0 9 -9 15 -25 15 l-25 0 0 145 c0
122 -2 145 -15 145 -8 0 -15 -9 -15 -20 0 -17 -7 -20 -50 -20 -43 0 -50 3 -50
20 0 13 -7 20 -20 20 -18 0 -20 -7 -20 -86 0 -48 -4 -83 -9 -80 -5 3 -9 22 -9
42 0 60 -21 62 -28 2 -2 -18 -4 -94 -4 -168 0 -93 -3 -130 -10 -120 -5 9 -10
94 -10 200 0 202 -12 266 -67 359 -24 42 -27 43 -40 25 -8 -10 -24 -40 -36
-66 -12 -26 -29 -49 -39 -51 -22 -6 -34 24 -13 35 19 11 20 47 0 54 -8 4 -21
1 -29 -5 -10 -9 -17 -6 -29 13 -14 21 -14 25 -2 30 18 6 19 28 3 44 -8 8 -17
8 -31 1 -15 -8 -23 -7 -35 5 -12 11 -13 16 -3 16 20 0 8 44 -13 48 -10 2 -22
-1 -26 -7 -12 -20 -40 -1 -34 23 3 14 -1 28 -11 36 -13 11 -18 10 -34 -4 -22
-20 -54 -11 -46 14 3 9 -2 23 -11 31 -14 11 -19 10 -34 -9 -17 -20 -57 -22
-45 -2 8 13 -24 40 -40 34 -8 -4 -15 -15 -15 -26 0 -14 -6 -19 -22 -16 -13 2
-23 8 -23 15 0 19 -22 36 -39 30 -9 -4 -16 -16 -16 -27 0 -11 -6 -20 -14 -20
-8 0 -21 -3 -30 -6 -10 -4 -16 -1 -16 9 0 8 -7 17 -15 21 -18 7 -46 -20 -39
-38 8 -21 -27 -29 -41 -10 -18 26 -49 10 -42 -21 5 -27 -26 -55 -38 -35 -10
15 -45 12 -51 -5 -4 -8 -1 -21 5 -29 17 -20 -13 -43 -34 -26 -12 10 -18 10
-30 0 -19 -16 -19 -39 0 -46 11 -5 12 -10 3 -24 -8 -13 -17 -16 -27 -11 -9 5
-22 6 -28 4 -16 -6 -17 -50 -2 -55 7 -2 9 -13 5 -25 -5 -15 -13 -19 -30 -16
-32 7 -41 -21 -14 -46 25 -24 18 -48 -14 -53 -30 -4 -37 -38 -9 -45 14 -3 21
-13 21 -29 0 -57 -69 -1 -71 58 0 12 -6 38 -13 57 l-12 35 -13 -50 c-25 -100
-23 -98 -61 -98 -50 -1 -80 -49 -80 -127 0 -33 -3 -59 -7 -59 -5 0 -8 19 -8
42 0 39 -2 43 -27 46 -27 3 -28 2 -28 -42 0 -39 -3 -46 -20 -46 -11 0 -20 -5
-20 -12 0 -6 -7 -3 -15 8 -13 16 -16 17 -25 4 -5 -8 -10 -31 -10 -50 0 -22 -3
-30 -8 -22 -6 9 -12 6 -20 -13 -16 -34 -45 -32 -59 4 -8 22 -21 32 -49 40 -22
6 -48 18 -58 26 -13 10 -43 15 -88 15 l-68 0 0 -34 c0 -19 -5 -36 -11 -38 -6
-2 -19 -33 -29 -68 l-19 -65 -1 80 c-1 68 -6 87 -29 125 -36 60 -71 66 -101
18 -27 -43 -28 -50 -36 -200 -3 -71 -10 -128 -15 -128 -5 0 -9 61 -9 135 0
128 -1 135 -20 135 -15 0 -20 7 -21 28 l-1 27 -10 -27 c-7 -20 -17 -28 -34
-28 l-24 0 -2 -132 -2 -133 -3 125 c-4 171 -3 170 -58 170 -41 0 -45 -2 -45
-25 0 -14 -4 -25 -10 -25 -5 0 -10 -20 -10 -45 0 -25 -5 -45 -11 -45 -6 0 -9
28 -8 78 l2 77 -46 3 c-35 2 -47 0 -47 -11 0 -7 -7 -14 -15 -14 -8 0 -15 9
-15 19 0 14 -8 18 -40 18 -33 0 -40 -3 -40 -20 0 -11 -4 -20 -10 -20 -5 0 -10
-20 -10 -45 0 -25 -4 -45 -10 -45 -5 0 -10 14 -10 30 0 25 -4 30 -25 30 -18 0
-25 5 -25 19 0 10 -7 38 -15 62 -9 24 -19 67 -23 94 l-7 50 -23 -90 c-12 -50
-22 -103 -22 -118 0 -30 -14 -36 -25 -9 -6 16 -7 16 -21 -2 -13 -18 -14 -17
-14 17 0 36 -1 37 -35 37 -24 0 -35 -5 -35 -15 0 -8 -4 -15 -10 -15 -5 0 -10
-22 -10 -50 0 -27 -4 -50 -10 -50 -6 0 -10 28 -10 65 l0 65 -54 0 c-81 0 -116
-9 -116 -31 0 -14 -7 -19 -29 -19 -16 0 -36 -3 -45 -6 -13 -5 -16 1 -16 30 l0
36 -46 0 c-25 0 -43 -3 -40 -8 2 -4 -29 -6 -69 -4 l-74 4 -3 -38 c-4 -46 -28
-60 -28 -15 0 16 -6 34 -14 38 -8 4 -16 24 -18 43 -3 30 -7 35 -30 38 -27 3
-28 1 -28 -38 0 -33 -4 -43 -20 -47 -13 -3 -20 -14 -20 -29 0 -15 -6 -24 -15
-24 -8 0 -15 5 -15 10 0 6 -9 10 -20 10 -19 0 -20 7 -20 173 0 169 -8 220 -30
187 -5 -8 -10 -48 -10 -88 l0 -73 -30 23 c-17 12 -30 31 -30 44 0 12 -6 27
-14 33 -12 10 -17 8 -25 -8 -6 -11 -11 -24 -11 -30 0 -5 -11 -22 -25 -37 l-25
-27 0 75 c0 53 -4 79 -14 87 -27 23 -36 -21 -36 -183 0 -85 -4 -157 -9 -160
-4 -3 -9 -40 -10 -83 -3 -98 -21 -124 -21 -30 l0 67 -30 0 c-17 0 -30 -5 -30
-12 0 -9 -4 -8 -10 2 -6 11 -20 15 -49 12 -41 -4 -41 -5 -42 -46 -1 -39 -2
-39 -9 -11 -4 17 -8 47 -9 67 -1 32 -5 39 -27 44 -15 4 -39 3 -53 -2 -26 -9
-26 -11 -29 -117 -2 -86 -6 -107 -17 -107 -11 0 -15 12 -15 40 0 36 -2 40 -25
40 -19 0 -25 5 -25 21 0 12 -8 23 -18 26 -14 3 -17 12 -14 39 l4 34 -46 0 -46
0 0 -65 c0 -37 -4 -65 -10 -65 -6 0 -10 33 -10 79 0 69 -2 79 -19 84 -14 3
-21 15 -23 43 -3 34 -6 39 -30 42 -27 3 -28 1 -28 -37 0 -30 -4 -41 -15 -41
-10 0 -15 -11 -15 -35 0 -24 -5 -35 -15 -35 -11 0 -15 11 -15 40 0 40 0 40
-39 40 -22 0 -43 -5 -46 -10 -3 -6 -15 -10 -26 -10 -18 0 -20 -6 -18 -52 2
-29 -1 -53 -6 -53 -6 0 -11 30 -13 68 l-3 67 -46 0 -45 0 4 -35 c3 -24 0 -35
-9 -35 -9 0 -13 -15 -13 -45 0 -43 -1 -45 -30 -45 l-30 0 0 69 0 68 -37 7
c-21 3 -62 6 -90 6 l-53 0 0 -176 c0 -108 -4 -173 -10 -169 -5 3 -8 71 -7 160
l2 155 -37 0 -38 0 0 -200 0 -200 393 -2 392 -3 -382 -2 -383 -3 0 -190 0
-190 6390 0 6390 0 0 190 c0 145 -3 190 -12 190 -10 0 -12 47 -10 210 l3 210
-36 0 -35 0 0 -80 c0 -64 -3 -80 -15 -80 -12 0 -15 -15 -15 -75 0 -60 -3 -75
-15 -75 -13 0 -15 21 -15 125 l0 125 -35 0 c-30 0 -35 -3 -35 -24 0 -24 -21
-36 -67 -36 -22 0 -23 -4 -25 -92 -1 -86 -2 -81 -11 60 l-10 152 -38 0 c-38 0
-39 -1 -39 -35 0 -28 -4 -35 -20 -35 -16 0 -20 7 -20 30 0 29 -2 30 -44 30
l-43 0 -6 -67 c-4 -38 -7 -103 -7 -145 0 -45 -4 -78 -10 -78 -6 0 -10 60 -10
160 l0 160 -37 -19 c-68 -35 -72 -45 -76 -193 l-3 -133 -2 146 c-2 122 -5 148
-17 153 -9 3 -15 14 -13 23 2 13 -5 19 -26 21 -16 2 -32 -2 -36 -8 -5 -7 -10
-1 -14 17 -10 39 -37 93 -46 93 -4 0 -15 -17 -23 -37 -15 -36 -16 -30 -16 150
l-1 187 -25 0 c-16 0 -25 6 -25 15 0 8 9 15 20 15 13 0 20 7 20 20 0 23 -10
26 -28 8 -9 -9 -12 -8 -12 5 0 10 8 17 19 17 16 0 19 7 19 45 0 25 -4 45 -9
45 -5 0 -9 -4 -9 -10 0 -5 -4 -10 -10 -10 -5 0 -10 7 -10 15 0 8 9 15 20 15
11 0 20 3 20 6 0 11 -28 33 -34 27 -3 -4 -6 -1 -6 5 0 7 9 12 20 12 22 0 27
15 8 23 -9 4 -7 6 3 6 11 1 16 12 17 36 1 20 4 41 8 46 3 6 3 36 -1 68 -5 46
-11 61 -28 69 -12 6 -16 11 -9 11 22 2 13 31 -13 41 -14 5 -25 14 -25 20 0 5
-7 10 -15 10 -8 0 -15 -7 -15 -15 0 -9 -9 -15 -21 -15 -17 0 -20 -5 -17 -24 3
-15 -2 -27 -14 -35 -17 -10 -19 -23 -17 -107 1 -75 5 -96 18 -104 10 -6 11
-10 4 -10 -8 0 -13 -14 -13 -35 0 -28 4 -35 20 -35 11 0 20 -5 20 -11 0 -5 -5
-7 -11 -3 -6 3 -15 0 -20 -7 -14 -22 -11 -29 13 -29 l22 0 -22 -16 c-27 -19
-28 -34 -2 -34 11 0 20 -4 20 -10 0 -5 -7 -7 -15 -4 -9 4 -15 0 -15 -7 0 -11
-2 -11 -10 1 -5 8 -12 11 -16 7 -11 -10 16 -37 37 -37 11 0 19 -7 19 -15 0 -9
-9 -15 -25 -15 -24 0 -25 -2 -25 -74 l0 -75 -55 -33 -54 -33 -1 -107 c0 -60
-4 -110 -10 -113 -6 -4 -10 7 -10 24 0 30 -1 31 -50 31 l-50 0 0 -175 c0 -110
-4 -175 -10 -175 -6 0 -10 60 -10 160 l0 160 -35 0 -35 0 0 -65 c0 -41 -4 -65
-11 -65 -7 0 -10 17 -7 45 2 25 0 45 -3 45 -3 0 -9 91 -12 203 -7 218 -17 318
-48 469 -35 175 -113 339 -164 346 -13 1 -28 -9 -42 -30z m-6414 -327 c83 -26
137 -59 197 -123 62 -65 95 -122 118 -207 19 -66 24 -174 11 -231 -11 -50 -74
-179 -74 -152 -1 12 -6 22 -12 22 -7 0 -8 7 -4 18 43 100 53 144 49 229 -5
113 -7 133 -16 133 -5 0 -8 6 -8 12 0 15 -67 125 -89 147 -39 38 -103 83 -148
103 -47 21 -65 25 -148 32 -53 4 -149 -17 -211 -45 -53 -25 -150 -116 -174
-165 -8 -16 -17 -31 -20 -34 -7 -6 -32 -87 -36 -115 -7 -51 -4 -153 5 -182 6
-20 6 -33 0 -33 -5 0 -9 -10 -10 -22 -2 -52 -29 83 -29 147 -1 126 25 208 97
303 114 152 322 219 502 163z m7071 3 c0 -17 -22 -14 -28 4 -2 7 3 12 12 12 9
0 16 -7 16 -16z m-7036 -73 c168 -82 267 -270 236 -450 -12 -74 -48 -162 -49
-123 -1 21 -5 22 -73 22 -108 -1 -117 -11 -120 -137 l-2 -98 -3 84 -4 83 -31
-6 c-18 -3 -36 -12 -40 -19 -4 -7 -8 3 -8 26 0 29 -4 37 -19 37 -15 0 -21 14
-33 83 -12 70 -12 84 0 93 8 5 12 21 10 35 -2 19 -9 24 -33 24 -24 0 -31 -5
-33 -23 -2 -13 1 -28 6 -35 7 -8 6 -34 -1 -77 -10 -56 -15 -65 -35 -68 -20 -3
-22 1 -22 43 0 45 -1 46 -27 43 -25 -3 -28 -8 -31 -45 -3 -34 -7 -42 -28 -47
-23 -6 -24 -10 -24 -76 0 -40 -4 -70 -10 -70 -6 0 -10 35 -10 85 l0 85 -60 0
-60 0 0 -31 c0 -19 -4 -28 -11 -23 -6 3 -9 19 -7 35 4 26 2 29 -23 29 -33 0
-39 13 -46 101 -14 166 78 338 220 411 76 39 118 48 213 45 80 -2 99 -7 158
-36z m7120 -26 c-4 -8 -8 -15 -10 -15 -2 0 -4 7 -4 15 0 8 4 15 10 15 5 0 7
-7 4 -15z m-7784 -440 c0 -16 -6 -25 -15 -25 -9 0 -15 9 -15 25 0 16 6 25 15
25 9 0 15 -9 15 -25z m1227 -82 c-2 -21 -4 -4 -4 37 0 41 2 58 4 38 2 -21 2
-55 0 -75z m-724 27 c6 -59 5 -63 -8 -46 -15 20 -21 97 -8 109 9 10 10 9 16
-63z m3001 -35 c0 -28 -3 -30 -42 -33 l-42 -3 0 -65 c0 -48 -3 -65 -12 -62 -9
3 -14 31 -16 81 l-3 77 -39 0 -39 0 -4 -102 c-2 -66 -6 -95 -11 -81 -6 17 -18
22 -59 25 -29 2 -55 -1 -59 -7 -4 -5 -8 27 -8 73 l0 82 -65 0 -65 0 -2 -87 -2
-88 -3 73 -4 72 -39 0 -40 0 0 -84 c0 -87 -12 -116 -46 -116 -8 0 -14 -4 -14
-10 0 -5 -4 -10 -10 -10 -6 0 -10 41 -10 104 0 102 -5 136 -19 136 -19 0 -29
-55 -30 -149 0 -55 0 -105 -1 -111 0 -5 -9 -10 -20 -10 -19 0 -20 7 -20 158 0
87 3 162 7 165 4 4 166 6 362 5 l355 -3 0 -30z m1793 3 c-3 -8 -6 -5 -6 6 -1
11 2 17 5 13 3 -3 4 -12 1 -19z m-2667 -43 c0 -18 -5 -25 -20 -25 -19 0 -20
-7 -20 -115 0 -70 -4 -115 -10 -115 -6 0 -10 43 -10 109 0 103 1 111 26 140
31 37 34 38 34 6z m1077 -72 c-3 -10 -5 -2 -5 17 0 19 2 27 5 18 2 -10 2 -26
0 -35z m-3657 27 c-8 -5 -19 -10 -25 -10 -5 0 -3 5 5 10 8 5 20 10 25 10 6 0
3 -5 -5 -10z m-1553 -142 c-2 -24 -4 -7 -4 37 0 44 2 63 4 43 2 -21 2 -57 0
-80z m3983 -3 c0 -37 -4 -65 -10 -65 -6 0 -10 28 -10 65 0 37 4 65 10 65 6 0
10 -28 10 -65z m-40 20 c0 -8 -4 -15 -10 -15 -5 0 -10 7 -10 15 0 8 5 15 10
15 6 0 10 -7 10 -15z m1417 -62 c-2 -16 -4 -3 -4 27 0 30 2 43 4 28 2 -16 2
-40 0 -55z m-667 -8 c0 -43 -4 -75 -10 -75 -6 0 -10 32 -10 75 0 43 4 75 10
75 6 0 10 -32 10 -75z m-2533 8 c-3 -10 -5 -4 -5 12 0 17 2 24 5 18 2 -7 2
-21 0 -30z m2380 -65 c-2 -18 -4 -4 -4 32 0 36 2 50 4 33 2 -18 2 -48 0 -65z
m3740 60 c-3 -7 -5 -2 -5 12 0 14 2 19 5 13 2 -7 2 -19 0 -25z m993 -24 c0 -8
-7 -14 -15 -14 -15 0 -21 21 -9 33 10 9 24 -2 24 -19z m-4460 -14 c0 -16 -4
-30 -10 -30 -5 0 -10 14 -10 30 0 17 5 30 10 30 6 0 10 -13 10 -30z m-360 -30
c0 -16 -7 -20 -32 -20 -31 0 -31 0 -12 19 25 26 44 26 44 1z m-470 -20 c0 -11
-7 -20 -15 -20 -18 0 -19 6 -2 25 16 19 17 18 17 -5z m110 0 c0 -11 -4 -20
-10 -20 -5 0 -10 9 -10 20 0 11 5 20 10 20 6 0 10 -9 10 -20z m-5822 -57 c-10
-2 -26 -2 -35 0 -10 3 -2 5 17 5 19 0 27 -2 18 -5z m135 0 c-7 -2 -19 -2 -25
0 -7 3 -2 5 12 5 14 0 19 -2 13 -5z m3980 0 c-51 -2 -136 -2 -190 0 -54 1 -12
3 92 3 105 0 149 -2 98 -3z"/>
<path d="M11740 3590 c0 -5 5 -10 10 -10 6 0 10 5 10 10 0 6 -4 10 -10 10 -5
0 -10 -4 -10 -10z"/>
<path d="M11740 3540 c0 -5 5 -10 10 -10 6 0 10 5 10 10 0 6 -4 10 -10 10 -5
0 -10 -4 -10 -10z"/>
</g>
</svg>
