<svg xmlns="http://www.w3.org/2000/svg" xmlns:xlink="http://www.w3.org/1999/xlink" xml:space="preserve" version="1.0" style="shape-rendering:geometricPrecision;text-rendering:geometricPrecision;image-rendering:optimizeQuality;" viewBox="0 0 10000 12500" x="0px" y="0px" fill-rule="evenodd" clip-rule="evenodd"><defs><style type="text/css">
   
    .fil0 {fill:#ffeba5;fill-rule:nonzero}
   
  </style></defs><g><path class="fil0" d="M6663 5570c66,0 66,100 0,100 -1384,0 -2507,1123 -2507,2507 0,66 -99,66 -99,0 0,-1384 -1123,-2507 -2507,-2507 -66,0 -66,-100 0,-100 1384,0 2507,-1122 2507,-2506 0,-66 99,-66 99,0 0,1384 1123,2506 2507,2506z"/><path class="fil0" d="M8450 2797c66,0 66,100 0,100 -538,0 -974,436 -974,974 0,65 -100,65 -100,0 0,-538 -436,-974 -974,-974 -65,0 -65,-100 0,-100 538,0 974,-436 974,-974 0,-66 100,-66 100,0 0,538 436,974 974,974z"/></g><text x="0" y="10015" fill="##ffeba5" font-size="5px" font-weight="bold" font-family="'Helvetica Neue', Helvetica, Arial-Unicode, Arial, Sans-serif">Created by Ragal Kartidev</text><text x="0" y="10020" fill="#000000" font-size="5px" font-weight="bold" font-family="'Helvetica Neue', Helvetica, Arial-Unicode, Arial, Sans-serif">from the Noun Project</text></svg>